<svg xmlns="http://www.w3.org/2000/svg" width="30" height="30" viewBox="0 0 30 30">
    <g fill="none" fill-rule="evenodd">
        <path fill="#B7B7B6" d="M22.777 14.428l-1.176-3.006h-3.788l-1.163 3.006h-1.112l3.736-9.489h.924l3.717 9.49h-1.138zm-1.519-3.995L20.16 7.505c-.142-.37-.288-.825-.44-1.364-.094.414-.23.869-.406 1.364L18.2 10.433h3.057zM22.82 25.642h-6.496v-.86l5.016-7.602h-4.861v-.989h6.199v.86l-5.016 7.595h5.158z"/>
        <path stroke="#B7B7B6" stroke-linecap="round" stroke-linejoin="round" d="M9.425 5.469v18.187M12.735 21.67l-3.31 3.31-3.31-3.31M6.116 8.673l3.31-3.31 3.309 3.31"/>
    </g>
</svg>
